<svg xmlns="http://www.w3.org/2000/svg" viewBox="0 0 512 512"><defs><style>.e{fill:#f4c762;}.f{fill:#eab84b;}.g{fill:#8c8c8c;}.h{fill:#cecece;}.i{fill:#dfdfdf;}.j{fill:#41a08e;}.k{fill:#349381;}.l{fill:#6e6e6e;}.m{fill:#575757;}.n{fill:#75bbad;}</style></defs><g id="a"/><g id="b"/><g id="c"><g><path class="i" d="M488,192l-3.64551-14.58105c-2.69434-10.77832-10.93604-19.29932-21.61865-22.35156l-38.73584-11.06738v-32h-32v32l-38.73584,11.06738c-10.68262,3.05225-18.92432,11.57324-21.61865,22.35156l-3.64551,14.58105,24,31.2002v72.7998h112v-72.7998l24-31.2002Z"/><path class="j" d="M328,192l3.64551-14.58105c2.69434-10.77832,10.93604-19.29932,21.61865-22.35156l38.73584-11.06738c5.77734,14.44336,26.22266,14.44336,32,0l38.73584,11.06738c10.68262,3.05225,18.92432,11.57324,21.61865,22.35156l3.64551,14.58105-24,31.2002v72.7998h-112v-72.7998l-24-31.2002Z"/><polygon class="k" points="438.02372 204.51767 451.23535 186.35254 444.76465 181.64746 431.58789 199.76465 438.02372 204.51767"/><polygon class="i" points="224 360 234.6665 488 277.3335 488 288 360 224 360"/><path class="f" d="M308.39502,71.38208l-4.39502-15.38208h0c0-17.6731-14.32666-32-32-32h-26.89941c-12.80078,0-24.37012,7.62866-29.4126,19.39453h0c-10.2002,23.80078-12.66602,50.20459-7.04858,75.48242l7.73755,34.80176,.85762,3.98779h84.53789l2.53857-6.44458c10.17041-25.42554,11.60693-53.50928,4.08398-79.83984Z"/><path class="i" d="M224,72l2.34315,11.71576c3.62202,18.1101,14.2899,34.03961,29.65682,44.28423l.00002,.00002,.28306-.14153c19.92718-9.96359,33.88394-28.86048,37.54663-50.83661l2.17031-13.02186-32-16-40,24Z"/><path class="i" d="M316.24951,181.24707c-2.65088-13.25488-11.81689-24.27417-24.36768-29.29443l-19.88184-7.95264v-40h-32v40l-19.88184,7.95264c-12.55054,5.02026-21.71655,16.03955-24.36768,29.29443l-3.75049,18.75293,48.1748,75.70312c3.45264,5.42578,9.94751,7.70923,15.82031,6.09351l.00269,.00659c5.87427,1.61914,12.37329-.67236,15.82739-6.1001l48.1748-75.70312-3.75049-18.75293Z"/><path class="h" d="M256,132c-.77637,0-1.5498-.22559-2.21875-.67188-4.99707-3.33105-9.57812-7.27051-13.61719-11.70996l5.91797-5.38281c3.07617,3.38086,6.50586,6.43652,10.21777,9.10742,3.68652-1.98926,7.18457-4.33203,10.41895-6.98047l5.06836,6.18945c-4.2168,3.45312-8.83105,6.44238-13.71484,8.88477l-.2832,.1416c-.56543,.28223-1.17773,.42188-1.78906,.42188Z"/><path class="e" d="M195.75049,181.24707c2.65088-13.25488,11.81689-24.27417,24.36768-29.29443l19.88184-7.95264,16,56,16-56,19.88184,7.95264c12.55054,5.02026,21.71655,16.03955,24.36768,29.29443l3.75049,18.75293-16,25.14282v46.85718h-96v-47.16431l-.05518,.22021-15.94482-25.05591,3.75049-18.75293Z"/><polygon class="f" points="235.87947 225.03013 244.11516 222.9618 227.32813 197.78125 220.67188 202.21875 235.87947 225.03013"/><path class="i" d="M184,200l-5.11279-20.45093c-1.81909-7.27637-6.9353-13.28394-13.82935-16.23853l-45.05786-19.31055v-22.56836h-32v22.56836l-45.05786,19.31055c-6.89404,2.95459-12.01025,8.96216-13.82935,16.23853l-5.11279,20.45093,15.88232,22.94116h0l8.11768,73.05884h112l8.11768-73.05884h0l15.88232-22.94116Z"/><path class="j" d="M184,200l-5.11279-20.45093c-1.81909-7.27637-6.9353-13.28394-13.82935-16.23853l-45.05786-19.31055-16,16-16-16-45.05786,19.31055c-6.89404,2.95459-12.01025,8.96216-13.82935,16.23853l-5.11279,20.45093,15.88232,22.94116,8.11768,73.05884h112l8.11768-73.05884,15.88232-22.94116Z"/><path class="i" d="M140.11279,84.78979l-4.81209-33.6764-60.06607,4.8866-5.52932,27.47314c-3.3064,16.53198,5.6521,33.06982,21.30566,39.3313h0c8.33813,3.33521,17.63989,3.33521,25.97803,0l1.49048-.59619c14.97754-5.99121,23.91455-21.44922,21.6333-37.41846Z"/><path class="f" d="M104,24c-17.6731,0-32,14.3269-32,32v16l48.62158-9.72437c18.24512-3.64893,31.37842-19.66895,31.37842-38.27563h-48Z"/><rect class="n" height="8" width="16" x="96" y="188"/><rect class="n" height="8" width="16" x="96" y="220"/><polygon class="g" points="48 296 64 488 144 488 160 296 48 296"/><rect class="l" height="168" width="8" x="100" y="320"/><path class="g" d="M304,272h-96c-10.33105,25.82764-11.1731,54.48096-2.37646,80.87061l2.37646,7.12939h96l2.37646-7.12939c8.79639-26.38965,7.95459-55.04297-2.37646-80.87061Z"/><path class="i" d="M368,64l6.66064,39.96338c.84131,5.04932,4.04834,9.39111,8.62695,11.68018l24.7124,12.35645,25.00098-12.50049c4.41602-2.20801,7.56543-6.3313,8.53369-11.17285l6.46533-32.32666-80-8Z"/><path class="f" d="M448,72l-80-8-2.14807-6.4442c-3.45503-10.36508,.45474-21.76025,9.54552-27.82077l.00002-.00002c5.4953-3.66353,12.24801-4.9249,18.69526-3.49218l61.90726,13.75717-8,32Z"/><rect class="g" height="192" width="112" x="352" y="296"/><rect class="l" height="160" width="8" x="404" y="328"/><path class="m" d="M436,456c-15.46387,0-28,12.53613-28,28v4h56v-4c0-15.46387-12.53613-28-28-28Z"/><polygon class="n" points="104 160 128 176 148 156 120 144 104 160"/><polygon class="n" points="88 144 60 156 80 176 104 160 88 144"/><path class="i" d="M114.12256,244.08154l-17.8125,24.49194c-4.7854,6.58008-4.07275,15.66382,1.68066,21.41724h0c7.29443,7.29443,19.41455,6.20166,25.28662-2.28027l17.77539-25.67529-26.93018-17.95361Z"/><polygon class="k" points="117.45364 246.30228 110.76102 241.83782 148.76465 189.64746 155.23535 194.35254 117.45364 246.30228"/><polygon class="k" points="144.38135 264.25415 166.99609 231.58789 160.41797 227.03516 137.72388 259.81592 144.38135 264.25415"/><polygon class="k" points="90.54637 246.30228 52.76465 194.35254 59.23535 189.64746 97.20697 241.85832 90.54637 246.30228"/><polygon class="k" points="63.66602 264.32324 41.03711 231.6377 47.61523 227.08301 70.27667 259.81554 63.66602 264.32324"/><path class="i" d="M93.87744,244.08154l-26.93018,17.95361,17.77539,25.67529c5.87207,8.48193,17.99219,9.57471,25.28662,2.28027h0c5.75342-5.75342,6.46606-14.83716,1.68066-21.41724l-17.8125-24.49194Z"/><path class="h" d="M97.69629,294.97754c-.89453-.64453-1.74707-1.37109-2.53418-2.15918-7.18945-7.18945-8.06738-18.375-2.08594-26.59766l7.68848-10.57324,6.4707,4.70508-7.68945,10.57324c-3.65137,5.01953-3.11621,11.84766,1.27246,16.23633,.48633,.48535,1.00977,.93262,1.55762,1.32715l-4.67969,6.48828Z"/><path class="h" d="M116.99219,118.49414l-1.48828,.59668c-7.41992,2.9668-15.58984,2.96582-23.00586,.00098-.38184-.15332-.75977-.31348-1.13184-.47949l-3.26953,7.30078c.46973,.21094,.94531,.41211,1.42871,.60547,4.66699,1.86621,9.57031,2.7998,14.47461,2.7998,4.90332,0,9.80859-.93359,14.47656-2.7998l1.49023-.59668-2.97461-7.42773Z"/><path class="i" d="M264.08496,260.12769l-24.08496-36.12769-28.23535,7.05884,28.41016,44.64429c4.29443,6.74854,13.29712,8.64893,19.95264,4.21191l.00049-.00024c6.55664-4.37134,8.32861-13.23022,3.95703-19.78711Z"/><path class="i" d="M272,224l-24.08496,36.12769c-4.37134,6.55688-2.59961,15.41577,3.95728,19.78711v.00024c6.65601,4.43701,15.65845,2.53662,19.95288-4.21191l28.41016-44.64429-28.23535-7.05884Z"/><path class="h" d="M265.2002,280.89453l-5.68164-5.63281c3.41211-3.44141,3.93262-8.87305,1.23828-12.91504l-6.59766-9.89746,6.65625-4.4375,6.59766,9.89746c4.79297,7.18945,3.8623,16.85645-2.21289,22.98535Z"/><rect class="h" height="128" width="8" x="252" y="360"/><path class="m" d="M380,456c-15.46387,0-28,12.53613-28,28v4h56v-4c0-15.46387-12.53613-28-28-28Z"/><path class="m" d="M84,456c-11.04565,0-20,8.95435-20,20v12h40v-12c0-11.04565-8.95435-20-20-20Z"/><path class="m" d="M124,456c-11.04565,0-20,8.95435-20,20v12h40v-12c0-11.04565-8.95435-20-20-20Z"/><path class="m" d="M240,456c-8.83643,0-16,7.16333-16,16v16h32v-16c0-8.83667-7.16357-16-16-16Z"/><path class="m" d="M272,456c-8.83643,0-16,7.16333-16,16v16h32v-16c0-8.83667-7.16357-16-16-16Z"/><path class="i" d="M434.82373,202.11768l-42.26611,58.11572c-4.92822,6.77588-4.19434,16.12988,1.73047,22.05444h0c7.26758,7.26782,19.26855,6.48828,25.53516-1.65845l43.78662-56.92212-28.78613-21.5896Z"/><path class="i" d="M423.44238,260.2334l-42.26611-58.11572-28.78613,21.5896,43.78662,56.92212c6.2666,8.14673,18.26758,8.92627,25.53516,1.65845,5.9248-5.92456,6.65869-15.27856,1.73047-22.05444Z"/><path class="h" d="M393.48438,268.05664l-7.88672-1.33984c.53809-3.16992,1.82617-6.22559,3.72461-8.83594l14.71484-20.2334,6.4707,4.70508-14.71484,20.2334c-1.19434,1.6416-1.9707,3.48242-2.30859,5.4707Z"/><polygon class="f" points="276.12053 225.03013 267.88484 222.9618 284.67188 197.78125 291.32812 202.21875 276.12053 225.03013"/><polygon class="k" points="377.97628 204.51767 364.76465 186.35254 371.23535 181.64746 384.41211 199.76465 377.97628 204.51767"/></g></g><g id="d"/></svg>